<svg xmlns="http://www.w3.org/2000/svg" style="display:none" aria-hidden="true">
<!-- Lucide icons (https://lucide.dev), ISC license — see LICENSES.md.
     Generated from @iconify-json/lucide 1.2.118. Symbol ids must stay in
     sync with src/chat_icons.py (contract test: tests/test_chat_icons.py). -->
<symbol id="arrow-down" viewBox="0 0 24 24"><path fill="none" stroke="currentColor" stroke-linecap="round" stroke-linejoin="round" stroke-width="2" d="M12 5v14m7-7l-7 7l-7-7"/></symbol>
<symbol id="arrow-left" viewBox="0 0 24 24"><path fill="none" stroke="currentColor" stroke-linecap="round" stroke-linejoin="round" stroke-width="2" d="m12 19l-7-7l7-7m7 7H5"/></symbol>
<symbol id="arrow-right" viewBox="0 0 24 24"><path fill="none" stroke="currentColor" stroke-linecap="round" stroke-linejoin="round" stroke-width="2" d="M5 12h14m-7-7l7 7l-7 7"/></symbol>
<symbol id="arrow-up" viewBox="0 0 24 24"><path fill="none" stroke="currentColor" stroke-linecap="round" stroke-linejoin="round" stroke-width="2" d="m5 12l7-7l7 7m-7 7V5"/></symbol>
<symbol id="ban" viewBox="0 0 24 24"><g fill="none" stroke="currentColor" stroke-linecap="round" stroke-linejoin="round" stroke-width="2"><circle cx="12" cy="12" r="10"/><path d="M4.929 4.929L19.07 19.071"/></g></symbol>
<symbol id="bell" viewBox="0 0 24 24"><path fill="none" stroke="currentColor" stroke-linecap="round" stroke-linejoin="round" stroke-width="2" d="M10.268 21a2 2 0 0 0 3.464 0m-10.47-5.674A1 1 0 0 0 4 17h16a1 1 0 0 0 .74-1.673C19.41 13.956 18 12.499 18 8A6 6 0 0 0 6 8c0 4.499-1.411 5.956-2.738 7.326"/></symbol>
<symbol id="book-open" viewBox="0 0 24 24"><path fill="none" stroke="currentColor" stroke-linecap="round" stroke-linejoin="round" stroke-width="2" d="M12 7v14m-9-3a1 1 0 0 1-1-1V4a1 1 0 0 1 1-1h5a4 4 0 0 1 4 4a4 4 0 0 1 4-4h5a1 1 0 0 1 1 1v13a1 1 0 0 1-1 1h-6a3 3 0 0 0-3 3a3 3 0 0 0-3-3z"/></symbol>
<symbol id="bookmark" viewBox="0 0 24 24"><path fill="none" stroke="currentColor" stroke-linecap="round" stroke-linejoin="round" stroke-width="2" d="M17 3a2 2 0 0 1 2 2v15a1 1 0 0 1-1.496.868l-4.512-2.578a2 2 0 0 0-1.984 0l-4.512 2.578A1 1 0 0 1 5 20V5a2 2 0 0 1 2-2z"/></symbol>
<symbol id="box" viewBox="0 0 24 24"><g fill="none" stroke="currentColor" stroke-linecap="round" stroke-linejoin="round" stroke-width="2"><path d="M21 8a2 2 0 0 0-1-1.73l-7-4a2 2 0 0 0-2 0l-7 4A2 2 0 0 0 3 8v8a2 2 0 0 0 1 1.73l7 4a2 2 0 0 0 2 0l7-4A2 2 0 0 0 21 16Z"/><path d="m3.3 7l8.7 5l8.7-5M12 22V12"/></g></symbol>
<symbol id="calendar" viewBox="0 0 24 24"><g fill="none" stroke="currentColor" stroke-linecap="round" stroke-linejoin="round" stroke-width="2"><path d="M8 2v4m8-4v4"/><rect width="18" height="18" x="3" y="4" rx="2"/><path d="M3 10h18"/></g></symbol>
<symbol id="chart-bar" viewBox="0 0 24 24"><path fill="none" stroke="currentColor" stroke-linecap="round" stroke-linejoin="round" stroke-width="2" d="M3 3v16a2 2 0 0 0 2 2h16M7 16h8m-8-5h12M7 6h3"/></symbol>
<symbol id="chart-line" viewBox="0 0 24 24"><g fill="none" stroke="currentColor" stroke-linecap="round" stroke-linejoin="round" stroke-width="2"><path d="M3 3v16a2 2 0 0 0 2 2h16"/><path d="m19 9l-5 5l-4-4l-3 3"/></g></symbol>
<symbol id="chart-pie" viewBox="0 0 24 24"><g fill="none" stroke="currentColor" stroke-linecap="round" stroke-linejoin="round" stroke-width="2"><path d="M21 12c.552 0 1.005-.449.95-.998a10 10 0 0 0-8.953-8.951c-.55-.055-.998.398-.998.95v8a1 1 0 0 0 1 1z"/><path d="M21.21 15.89A10 10 0 1 1 8 2.83"/></g></symbol>
<symbol id="check" viewBox="0 0 24 24"><path fill="none" stroke="currentColor" stroke-linecap="round" stroke-linejoin="round" stroke-width="2" d="M20 6L9 17l-5-5"/></symbol>
<symbol id="chevron-down" viewBox="0 0 24 24"><path fill="none" stroke="currentColor" stroke-linecap="round" stroke-linejoin="round" stroke-width="2" d="m6 9l6 6l6-6"/></symbol>
<symbol id="chevron-left" viewBox="0 0 24 24"><path fill="none" stroke="currentColor" stroke-linecap="round" stroke-linejoin="round" stroke-width="2" d="m15 18l-6-6l6-6"/></symbol>
<symbol id="chevron-right" viewBox="0 0 24 24"><path fill="none" stroke="currentColor" stroke-linecap="round" stroke-linejoin="round" stroke-width="2" d="m9 18l6-6l-6-6"/></symbol>
<symbol id="chevron-up" viewBox="0 0 24 24"><path fill="none" stroke="currentColor" stroke-linecap="round" stroke-linejoin="round" stroke-width="2" d="m18 15l-6-6l-6 6"/></symbol>
<symbol id="circle-alert" viewBox="0 0 24 24"><g fill="none" stroke="currentColor" stroke-linecap="round" stroke-linejoin="round" stroke-width="2"><circle cx="12" cy="12" r="10"/><path d="M12 8v4m0 4h.01"/></g></symbol>
<symbol id="circle-check" viewBox="0 0 24 24"><g fill="none" stroke="currentColor" stroke-linecap="round" stroke-linejoin="round" stroke-width="2"><circle cx="12" cy="12" r="10"/><path d="m9 12l2 2l4-4"/></g></symbol>
<symbol id="circle-help" viewBox="0 0 24 24"><g fill="none" stroke="currentColor" stroke-linecap="round" stroke-linejoin="round" stroke-width="2"><circle cx="12" cy="12" r="10"/><path d="M9.09 9a3 3 0 0 1 5.83 1c0 2-3 3-3 3m.08 4h.01"/></g></symbol>
<symbol id="circle-x" viewBox="0 0 24 24"><g fill="none" stroke="currentColor" stroke-linecap="round" stroke-linejoin="round" stroke-width="2"><circle cx="12" cy="12" r="10"/><path d="m15 9l-6 6m0-6l6 6"/></g></symbol>
<symbol id="clock" viewBox="0 0 24 24"><g fill="none" stroke="currentColor" stroke-linecap="round" stroke-linejoin="round" stroke-width="2"><circle cx="12" cy="12" r="10"/><path d="M12 6v6l4 2"/></g></symbol>
<symbol id="cloud" viewBox="0 0 24 24"><path fill="none" stroke="currentColor" stroke-linecap="round" stroke-linejoin="round" stroke-width="2" d="M17.5 19H9a7 7 0 1 1 6.71-9h1.79a4.5 4.5 0 1 1 0 9"/></symbol>
<symbol id="copy" viewBox="0 0 24 24"><g fill="none" stroke="currentColor" stroke-linecap="round" stroke-linejoin="round" stroke-width="2"><rect width="14" height="14" x="8" y="8" rx="2" ry="2"/><path d="M4 16c-1.1 0-2-.9-2-2V4c0-1.1.9-2 2-2h10c1.1 0 2 .9 2 2"/></g></symbol>
<symbol id="database" viewBox="0 0 24 24"><g fill="none" stroke="currentColor" stroke-linecap="round" stroke-linejoin="round" stroke-width="2"><ellipse cx="12" cy="5" rx="9" ry="3"/><path d="M3 5v14a9 3 0 0 0 18 0V5"/><path d="M3 12a9 3 0 0 0 18 0"/></g></symbol>
<symbol id="download" viewBox="0 0 24 24"><g fill="none" stroke="currentColor" stroke-linecap="round" stroke-linejoin="round" stroke-width="2"><path d="M12 15V3m9 12v4a2 2 0 0 1-2 2H5a2 2 0 0 1-2-2v-4"/><path d="m7 10l5 5l5-5"/></g></symbol>
<symbol id="external-link" viewBox="0 0 24 24"><path fill="none" stroke="currentColor" stroke-linecap="round" stroke-linejoin="round" stroke-width="2" d="M15 3h6v6m-11 5L21 3m-3 10v6a2 2 0 0 1-2 2H5a2 2 0 0 1-2-2V8a2 2 0 0 1 2-2h6"/></symbol>
<symbol id="eye" viewBox="0 0 24 24"><g fill="none" stroke="currentColor" stroke-linecap="round" stroke-linejoin="round" stroke-width="2"><path d="M2.062 12.348a1 1 0 0 1 0-.696a10.75 10.75 0 0 1 19.876 0a1 1 0 0 1 0 .696a10.75 10.75 0 0 1-19.876 0"/><circle cx="12" cy="12" r="3"/></g></symbol>
<symbol id="file" viewBox="0 0 24 24"><g fill="none" stroke="currentColor" stroke-linecap="round" stroke-linejoin="round" stroke-width="2"><path d="M6 22a2 2 0 0 1-2-2V4a2 2 0 0 1 2-2h8a2.4 2.4 0 0 1 1.704.706l3.588 3.588A2.4 2.4 0 0 1 20 8v12a2 2 0 0 1-2 2z"/><path d="M14 2v5a1 1 0 0 0 1 1h5"/></g></symbol>
<symbol id="file-text" viewBox="0 0 24 24"><g fill="none" stroke="currentColor" stroke-linecap="round" stroke-linejoin="round" stroke-width="2"><path d="M6 22a2 2 0 0 1-2-2V4a2 2 0 0 1 2-2h8a2.4 2.4 0 0 1 1.704.706l3.588 3.588A2.4 2.4 0 0 1 20 8v12a2 2 0 0 1-2 2z"/><path d="M14 2v5a1 1 0 0 0 1 1h5M10 9H8m8 4H8m8 4H8"/></g></symbol>
<symbol id="filter" viewBox="0 0 24 24"><path fill="none" stroke="currentColor" stroke-linecap="round" stroke-linejoin="round" stroke-width="2" d="M22 3H2l8 9.46V19l4 2v-8.54z"/></symbol>
<symbol id="flag" viewBox="0 0 24 24"><path fill="none" stroke="currentColor" stroke-linecap="round" stroke-linejoin="round" stroke-width="2" d="M4 22V4a1 1 0 0 1 .4-.8A6 6 0 0 1 8 2c3 0 5 2 7.333 2q2 0 3.067-.8A1 1 0 0 1 20 4v10a1 1 0 0 1-.4.8A6 6 0 0 1 16 16c-3 0-5-2-8-2a6 6 0 0 0-4 1.528"/></symbol>
<symbol id="folder" viewBox="0 0 24 24"><path fill="none" stroke="currentColor" stroke-linecap="round" stroke-linejoin="round" stroke-width="2" d="M20 20a2 2 0 0 0 2-2V8a2 2 0 0 0-2-2h-7.9a2 2 0 0 1-1.69-.9L9.6 3.9A2 2 0 0 0 7.93 3H4a2 2 0 0 0-2 2v13a2 2 0 0 0 2 2Z"/></symbol>
<symbol id="gauge" viewBox="0 0 24 24"><path fill="none" stroke="currentColor" stroke-linecap="round" stroke-linejoin="round" stroke-width="2" d="m12 14l4-4M3.34 19a10 10 0 1 1 17.32 0"/></symbol>
<symbol id="git-branch" viewBox="0 0 24 24"><g fill="none" stroke="currentColor" stroke-linecap="round" stroke-linejoin="round" stroke-width="2"><path d="M15 6a9 9 0 0 0-9 9V3"/><circle cx="18" cy="6" r="3"/><circle cx="6" cy="18" r="3"/></g></symbol>
<symbol id="globe" viewBox="0 0 24 24"><g fill="none" stroke="currentColor" stroke-linecap="round" stroke-linejoin="round" stroke-width="2"><circle cx="12" cy="12" r="10"/><path d="M12 2a14.5 14.5 0 0 0 0 20a14.5 14.5 0 0 0 0-20M2 12h20"/></g></symbol>
<symbol id="hand" viewBox="0 0 24 24"><g fill="none" stroke="currentColor" stroke-linecap="round" stroke-linejoin="round" stroke-width="2"><path d="M18 11V6a2 2 0 0 0-2-2a2 2 0 0 0-2 2m0 4V4a2 2 0 0 0-2-2a2 2 0 0 0-2 2v2m0 4.5V6a2 2 0 0 0-2-2a2 2 0 0 0-2 2v8"/><path d="M18 8a2 2 0 1 1 4 0v6a8 8 0 0 1-8 8h-2c-2.8 0-4.5-.86-5.99-2.34l-3.6-3.6a2 2 0 0 1 2.83-2.82L7 15"/></g></symbol>
<symbol id="hard-drive" viewBox="0 0 24 24"><path fill="none" stroke="currentColor" stroke-linecap="round" stroke-linejoin="round" stroke-width="2" d="M10 16h.01m-7.798-4.423a2 2 0 0 0-.212.896V18a2 2 0 0 0 2 2h16a2 2 0 0 0 2-2v-5.527a2 2 0 0 0-.212-.896L18.55 5.11A2 2 0 0 0 16.76 4H7.24a2 2 0 0 0-1.79 1.11zm19.734.436H2.054M6 16h.01"/></symbol>
<symbol id="history" viewBox="0 0 24 24"><g fill="none" stroke="currentColor" stroke-linecap="round" stroke-linejoin="round" stroke-width="2"><path d="M3 12a9 9 0 1 0 9-9a9.75 9.75 0 0 0-6.74 2.74L3 8"/><path d="M3 3v5h5m4-1v5l4 2"/></g></symbol>
<symbol id="hourglass" viewBox="0 0 24 24"><path fill="none" stroke="currentColor" stroke-linecap="round" stroke-linejoin="round" stroke-width="2" d="M5 22h14M5 2h14m-2 20v-4.172a2 2 0 0 0-.586-1.414L12 12l-4.414 4.414A2 2 0 0 0 7 17.828V22M7 2v4.172a2 2 0 0 0 .586 1.414L12 12l4.414-4.414A2 2 0 0 0 17 6.172V2"/></symbol>
<symbol id="info" viewBox="0 0 24 24"><g fill="none" stroke="currentColor" stroke-linecap="round" stroke-linejoin="round" stroke-width="2"><circle cx="12" cy="12" r="10"/><path d="M12 16v-4m0-4h.01"/></g></symbol>
<symbol id="key" viewBox="0 0 24 24"><g fill="none" stroke="currentColor" stroke-linecap="round" stroke-linejoin="round" stroke-width="2"><path d="m15.5 7.5l2.3 2.3a1 1 0 0 0 1.4 0l2.1-2.1a1 1 0 0 0 0-1.4L19 4m2-2l-9.6 9.6"/><circle cx="7.5" cy="15.5" r="5.5"/></g></symbol>
<symbol id="layers" viewBox="0 0 24 24"><g fill="none" stroke="currentColor" stroke-linecap="round" stroke-linejoin="round" stroke-width="2"><path d="M12.83 2.18a2 2 0 0 0-1.66 0L2.6 6.08a1 1 0 0 0 0 1.83l8.58 3.91a2 2 0 0 0 1.66 0l8.58-3.9a1 1 0 0 0 0-1.83z"/><path d="M2 12a1 1 0 0 0 .58.91l8.6 3.91a2 2 0 0 0 1.65 0l8.58-3.9A1 1 0 0 0 22 12"/><path d="M2 17a1 1 0 0 0 .58.91l8.6 3.91a2 2 0 0 0 1.65 0l8.58-3.9A1 1 0 0 0 22 17"/></g></symbol>
<symbol id="lightbulb" viewBox="0 0 24 24"><path fill="none" stroke="currentColor" stroke-linecap="round" stroke-linejoin="round" stroke-width="2" d="M15 14c.2-1 .7-1.7 1.5-2.5c1-.9 1.5-2.2 1.5-3.5A6 6 0 0 0 6 8c0 1 .2 2.2 1.5 3.5c.7.7 1.3 1.5 1.5 2.5m0 4h6m-5 4h4"/></symbol>
<symbol id="link" viewBox="0 0 24 24"><g fill="none" stroke="currentColor" stroke-linecap="round" stroke-linejoin="round" stroke-width="2"><path d="M10 13a5 5 0 0 0 7.54.54l3-3a5 5 0 0 0-7.07-7.07l-1.72 1.71"/><path d="M14 11a5 5 0 0 0-7.54-.54l-3 3a5 5 0 0 0 7.07 7.07l1.71-1.71"/></g></symbol>
<symbol id="list" viewBox="0 0 24 24"><path fill="none" stroke="currentColor" stroke-linecap="round" stroke-linejoin="round" stroke-width="2" d="M3 5h.01M3 12h.01M3 19h.01M8 5h13M8 12h13M8 19h13"/></symbol>
<symbol id="list-checks" viewBox="0 0 24 24"><path fill="none" stroke="currentColor" stroke-linecap="round" stroke-linejoin="round" stroke-width="2" d="M13 5h8m-8 7h8m-8 7h8M3 17l2 2l4-4M3 7l2 2l4-4"/></symbol>
<symbol id="loader-circle" viewBox="0 0 24 24"><path fill="none" stroke="currentColor" stroke-linecap="round" stroke-linejoin="round" stroke-width="2" d="M21 12a9 9 0 1 1-6.219-8.56"/></symbol>
<symbol id="lock" viewBox="0 0 24 24"><g fill="none" stroke="currentColor" stroke-linecap="round" stroke-linejoin="round" stroke-width="2"><rect width="18" height="11" x="3" y="11" rx="2" ry="2"/><path d="M7 11V7a5 5 0 0 1 10 0v4"/></g></symbol>
<symbol id="mail" viewBox="0 0 24 24"><g fill="none" stroke="currentColor" stroke-linecap="round" stroke-linejoin="round" stroke-width="2"><path d="m22 7l-8.991 5.727a2 2 0 0 1-2.009 0L2 7"/><rect width="20" height="16" x="2" y="4" rx="2"/></g></symbol>
<symbol id="minus" viewBox="0 0 24 24"><path fill="none" stroke="currentColor" stroke-linecap="round" stroke-linejoin="round" stroke-width="2" d="M5 12h14"/></symbol>
<symbol id="package" viewBox="0 0 24 24"><g fill="none" stroke="currentColor" stroke-linecap="round" stroke-linejoin="round" stroke-width="2"><path d="M11 21.73a2 2 0 0 0 2 0l7-4A2 2 0 0 0 21 16V8a2 2 0 0 0-1-1.73l-7-4a2 2 0 0 0-2 0l-7 4A2 2 0 0 0 3 8v8a2 2 0 0 0 1 1.73zm1 .27V12"/><path d="M3.29 7L12 12l8.71-5M7.5 4.27l9 5.15"/></g></symbol>
<symbol id="pause" viewBox="0 0 24 24"><g fill="none" stroke="currentColor" stroke-linecap="round" stroke-linejoin="round" stroke-width="2"><rect width="5" height="18" x="14" y="3" rx="1"/><rect width="5" height="18" x="5" y="3" rx="1"/></g></symbol>
<symbol id="pencil" viewBox="0 0 24 24"><path fill="none" stroke="currentColor" stroke-linecap="round" stroke-linejoin="round" stroke-width="2" d="M21.174 6.812a1 1 0 0 0-3.986-3.987L3.842 16.174a2 2 0 0 0-.5.83l-1.321 4.352a.5.5 0 0 0 .623.622l4.353-1.32a2 2 0 0 0 .83-.497zM15 5l4 4"/></symbol>
<symbol id="pin" viewBox="0 0 24 24"><path fill="none" stroke="currentColor" stroke-linecap="round" stroke-linejoin="round" stroke-width="2" d="M12 17v5M9 10.76a2 2 0 0 1-1.11 1.79l-1.78.9A2 2 0 0 0 5 15.24V16a1 1 0 0 0 1 1h12a1 1 0 0 0 1-1v-.76a2 2 0 0 0-1.11-1.79l-1.78-.9A2 2 0 0 1 15 10.76V7a1 1 0 0 1 1-1a2 2 0 0 0 0-4H8a2 2 0 0 0 0 4a1 1 0 0 1 1 1z"/></symbol>
<symbol id="play" viewBox="0 0 24 24"><path fill="none" stroke="currentColor" stroke-linecap="round" stroke-linejoin="round" stroke-width="2" d="M5 5a2 2 0 0 1 3.008-1.728l11.997 6.998a2 2 0 0 1 .003 3.458l-12 7A2 2 0 0 1 5 19z"/></symbol>
<symbol id="plus" viewBox="0 0 24 24"><path fill="none" stroke="currentColor" stroke-linecap="round" stroke-linejoin="round" stroke-width="2" d="M5 12h14m-7-7v14"/></symbol>
<symbol id="refresh-cw" viewBox="0 0 24 24"><g fill="none" stroke="currentColor" stroke-linecap="round" stroke-linejoin="round" stroke-width="2"><path d="M3 12a9 9 0 0 1 9-9a9.75 9.75 0 0 1 6.74 2.74L21 8"/><path d="M21 3v5h-5m5 4a9 9 0 0 1-9 9a9.75 9.75 0 0 1-6.74-2.74L3 16"/><path d="M8 16H3v5"/></g></symbol>
<symbol id="rocket" viewBox="0 0 24 24"><g fill="none" stroke="currentColor" stroke-linecap="round" stroke-linejoin="round" stroke-width="2"><path d="M12 15v5s3.03-.55 4-2c1.08-1.62 0-5 0-5M4.5 16.5c-1.5 1.26-2 5-2 5s3.74-.5 5-2c.71-.84.7-2.13-.09-2.91a2.18 2.18 0 0 0-2.91-.09"/><path d="M9 12a22 22 0 0 1 2-3.95A12.88 12.88 0 0 1 22 2c0 2.72-.78 7.5-6 11a22.4 22.4 0 0 1-4 2z"/><path d="M9 12H4s.55-3.03 2-4c1.62-1.08 5 .05 5 .05"/></g></symbol>
<symbol id="search" viewBox="0 0 24 24"><g fill="none" stroke="currentColor" stroke-linecap="round" stroke-linejoin="round" stroke-width="2"><path d="m21 21l-4.34-4.34"/><circle cx="11" cy="11" r="8"/></g></symbol>
<symbol id="server" viewBox="0 0 24 24"><g fill="none" stroke="currentColor" stroke-linecap="round" stroke-linejoin="round" stroke-width="2"><rect width="20" height="8" x="2" y="2" rx="2" ry="2"/><rect width="20" height="8" x="2" y="14" rx="2" ry="2"/><path d="M6 6h.01M6 18h.01"/></g></symbol>
<symbol id="settings" viewBox="0 0 24 24"><g fill="none" stroke="currentColor" stroke-linecap="round" stroke-linejoin="round" stroke-width="2"><path d="M9.671 4.136a2.34 2.34 0 0 1 4.659 0a2.34 2.34 0 0 0 3.319 1.915a2.34 2.34 0 0 1 2.33 4.033a2.34 2.34 0 0 0 0 3.831a2.34 2.34 0 0 1-2.33 4.033a2.34 2.34 0 0 0-3.319 1.915a2.34 2.34 0 0 1-4.659 0a2.34 2.34 0 0 0-3.32-1.915a2.34 2.34 0 0 1-2.33-4.033a2.34 2.34 0 0 0 0-3.831A2.34 2.34 0 0 1 6.35 6.051a2.34 2.34 0 0 0 3.319-1.915"/><circle cx="12" cy="12" r="3"/></g></symbol>
<symbol id="shield" viewBox="0 0 24 24"><path fill="none" stroke="currentColor" stroke-linecap="round" stroke-linejoin="round" stroke-width="2" d="M20 13c0 5-3.5 7.5-7.66 8.95a1 1 0 0 1-.67-.01C7.5 20.5 4 18 4 13V6a1 1 0 0 1 1-1c2 0 4.5-1.2 6.24-2.72a1.17 1.17 0 0 1 1.52 0C14.51 3.81 17 5 19 5a1 1 0 0 1 1 1z"/></symbol>
<symbol id="sparkles" viewBox="0 0 24 24"><g fill="none" stroke="currentColor" stroke-linecap="round" stroke-linejoin="round" stroke-width="2"><path d="M11.017 2.814a1 1 0 0 1 1.966 0l1.051 5.558a2 2 0 0 0 1.594 1.594l5.558 1.051a1 1 0 0 1 0 1.966l-5.558 1.051a2 2 0 0 0-1.594 1.594l-1.051 5.558a1 1 0 0 1-1.966 0l-1.051-5.558a2 2 0 0 0-1.594-1.594l-5.558-1.051a1 1 0 0 1 0-1.966l5.558-1.051a2 2 0 0 0 1.594-1.594zM20 2v4m2-2h-4"/><circle cx="4" cy="20" r="2"/></g></symbol>
<symbol id="star" viewBox="0 0 24 24"><path fill="none" stroke="currentColor" stroke-linecap="round" stroke-linejoin="round" stroke-width="2" d="M11.525 2.295a.53.53 0 0 1 .95 0l2.31 4.679a2.12 2.12 0 0 0 1.595 1.16l5.166.756a.53.53 0 0 1 .294.904l-3.736 3.638a2.12 2.12 0 0 0-.611 1.878l.882 5.14a.53.53 0 0 1-.771.56l-4.618-2.428a2.12 2.12 0 0 0-1.973 0L6.396 21.01a.53.53 0 0 1-.77-.56l.881-5.139a2.12 2.12 0 0 0-.611-1.879L2.16 9.795a.53.53 0 0 1 .294-.906l5.165-.755a2.12 2.12 0 0 0 1.597-1.16z"/></symbol>
<symbol id="table" viewBox="0 0 24 24"><g fill="none" stroke="currentColor" stroke-linecap="round" stroke-linejoin="round" stroke-width="2"><path d="M12 3v18"/><rect width="18" height="18" x="3" y="3" rx="2"/><path d="M3 9h18M3 15h18"/></g></symbol>
<symbol id="trash-2" viewBox="0 0 24 24"><path fill="none" stroke="currentColor" stroke-linecap="round" stroke-linejoin="round" stroke-width="2" d="M10 11v6m4-6v6m5-11v14a2 2 0 0 1-2 2H7a2 2 0 0 1-2-2V6M3 6h18M8 6V4a2 2 0 0 1 2-2h4a2 2 0 0 1 2 2v2"/></symbol>
<symbol id="trending-down" viewBox="0 0 24 24"><g fill="none" stroke="currentColor" stroke-linecap="round" stroke-linejoin="round" stroke-width="2"><path d="M16 17h6v-6"/><path d="m22 17l-8.5-8.5l-5 5L2 7"/></g></symbol>
<symbol id="trending-up" viewBox="0 0 24 24"><g fill="none" stroke="currentColor" stroke-linecap="round" stroke-linejoin="round" stroke-width="2"><path d="M16 7h6v6"/><path d="m22 7l-8.5 8.5l-5-5L2 17"/></g></symbol>
<symbol id="triangle-alert" viewBox="0 0 24 24"><path fill="none" stroke="currentColor" stroke-linecap="round" stroke-linejoin="round" stroke-width="2" d="m21.73 18l-8-14a2 2 0 0 0-3.48 0l-8 14A2 2 0 0 0 4 21h16a2 2 0 0 0 1.73-3M12 9v4m0 4h.01"/></symbol>
<symbol id="upload" viewBox="0 0 24 24"><path fill="none" stroke="currentColor" stroke-linecap="round" stroke-linejoin="round" stroke-width="2" d="M12 3v12m5-7l-5-5l-5 5m14 7v4a2 2 0 0 1-2 2H5a2 2 0 0 1-2-2v-4"/></symbol>
<symbol id="user" viewBox="0 0 24 24"><g fill="none" stroke="currentColor" stroke-linecap="round" stroke-linejoin="round" stroke-width="2"><path d="M19 21v-2a4 4 0 0 0-4-4H9a4 4 0 0 0-4 4v2"/><circle cx="12" cy="7" r="4"/></g></symbol>
<symbol id="users" viewBox="0 0 24 24"><g fill="none" stroke="currentColor" stroke-linecap="round" stroke-linejoin="round" stroke-width="2"><path d="M16 21v-2a4 4 0 0 0-4-4H6a4 4 0 0 0-4 4v2M16 3.128a4 4 0 0 1 0 7.744M22 21v-2a4 4 0 0 0-3-3.87"/><circle cx="9" cy="7" r="4"/></g></symbol>
<symbol id="workflow" viewBox="0 0 24 24"><g fill="none" stroke="currentColor" stroke-linecap="round" stroke-linejoin="round" stroke-width="2"><rect width="8" height="8" x="3" y="3" rx="2"/><path d="M7 11v4a2 2 0 0 0 2 2h4"/><rect width="8" height="8" x="13" y="13" rx="2"/></g></symbol>
<symbol id="wrench" viewBox="0 0 24 24"><path fill="none" stroke="currentColor" stroke-linecap="round" stroke-linejoin="round" stroke-width="2" d="M14.7 6.3a1 1 0 0 0 0 1.4l1.6 1.6a1 1 0 0 0 1.4 0l3.106-3.105c.32-.322.863-.22.983.218a6 6 0 0 1-8.259 7.057l-7.91 7.91a1 1 0 0 1-2.999-3l7.91-7.91a6 6 0 0 1 7.057-8.259c.438.12.54.662.219.984z"/></symbol>
<symbol id="x" viewBox="0 0 24 24"><path fill="none" stroke="currentColor" stroke-linecap="round" stroke-linejoin="round" stroke-width="2" d="M18 6L6 18M6 6l12 12"/></symbol>
<symbol id="zap" viewBox="0 0 24 24"><path fill="none" stroke="currentColor" stroke-linecap="round" stroke-linejoin="round" stroke-width="2" d="M4 14a1 1 0 0 1-.78-1.63l9.9-10.2a.5.5 0 0 1 .86.46l-1.92 6.02A1 1 0 0 0 13 10h7a1 1 0 0 1 .78 1.63l-9.9 10.2a.5.5 0 0 1-.86-.46l1.92-6.02A1 1 0 0 0 11 14z"/></symbol>
</svg>
